<svg width="50" height="50" viewBox="0 0 50 50" fill="none" xmlns="http://www.w3.org/2000/svg">
<rect width="50" height="50" rx="12" fill="#EB7353"/>
<path d="M13.7368 4.16669C8.56917 4.16669 4.36995 8.18687 4.1665 13.3464V14.5834H8.33317V13.5417C8.4471 10.6283 10.8153 8.33335 13.7368 8.33335H14.5832V4.16669H13.7368ZM18.7498 4.16669V8.33335H22.9165V4.16669H18.7498ZM27.0832 4.16669V8.33335H31.2498V4.16669H27.0832ZM35.4165 4.16669V8.33335H36.4582C39.3716 8.44729 41.6665 10.8154 41.6665 13.737V14.5834H45.8332V13.737C45.8332 8.56936 41.813 4.37014 36.6535 4.16669H35.4165ZM4.1665 18.75V22.9167H8.33317V18.75H4.1665ZM41.6665 18.75V22.9167H45.8332V18.75H41.6665ZM4.1665 27.0834V31.25H8.33317V27.0834H4.1665ZM41.6665 27.0834V31.25H45.8332V27.0834H41.6665ZM4.1665 35.4167V36.6537C4.36995 41.8132 8.56917 45.8334 13.7368 45.8334H14.5832V41.6667H13.7368C10.8153 41.6667 8.4471 39.3718 8.33317 36.4584V35.4167H4.1665ZM41.6665 35.4167V36.263C41.6665 39.1846 39.3716 41.5528 36.4582 41.6667H35.4165V45.8334H36.6535C41.813 45.6299 45.8332 41.4307 45.8332 36.263V35.4167H41.6665ZM18.7498 41.6667V45.8334H22.9165V41.6667H18.7498ZM27.0832 41.6667V45.8334H31.2498V41.6667H27.0832Z" fill="white"/>
</svg>
